<svg width="21" height="20" viewBox="0 0 21 20" fill="none" xmlns="http://www.w3.org/2000/svg">
<path d="M14.4999 2.75C14.4999 2.55109 14.5789 2.36032 14.7196 2.21967C14.8602 2.07902 15.051 2 15.2499 2H17.7499C17.9488 2 18.1396 2.07902 18.2802 2.21967C18.4209 2.36032 18.4999 2.55109 18.4999 2.75V5.25C18.4999 5.44891 18.4209 5.63968 18.2802 5.78033C18.1396 5.92098 17.9488 6 17.7499 6C17.551 6 17.3602 5.92098 17.2196 5.78033C17.0789 5.63968 16.9999 5.44891 16.9999 5.25V4.56L12.5299 9.03C12.3893 9.17045 12.1987 9.24934 11.9999 9.24934C11.8012 9.24934 11.6105 9.17045 11.4699 9.03L8.99991 6.56L4.77991 10.78C4.71125 10.8537 4.62845 10.9128 4.53645 10.9538C4.44445 10.9948 4.34513 11.0168 4.24443 11.0186C4.14373 11.0204 4.0437 11.0018 3.95031 10.9641C3.85692 10.9264 3.77209 10.8703 3.70087 10.799C3.62965 10.7278 3.57351 10.643 3.53579 10.5496C3.49807 10.4562 3.47954 10.3562 3.48132 10.2555C3.48309 10.1548 3.50514 10.0555 3.54613 9.96346C3.58712 9.87146 3.64622 9.78866 3.71991 9.72L8.46991 4.97C8.61053 4.82955 8.80116 4.75066 8.99991 4.75066C9.19866 4.75066 9.38928 4.82955 9.52991 4.97L11.9999 7.44L15.9399 3.5H15.2499C15.051 3.5 14.8602 3.42098 14.7196 3.28033C14.5789 3.13968 14.4999 2.94891 14.4999 2.75ZM4.24991 14C4.44882 14 4.63959 14.079 4.78024 14.2197C4.92089 14.3603 4.99991 14.5511 4.99991 14.75V17.25C4.99991 17.4489 4.92089 17.6397 4.78024 17.7803C4.63959 17.921 4.44882 18 4.24991 18C4.051 18 3.86023 17.921 3.71958 17.7803C3.57893 17.6397 3.49991 17.4489 3.49991 17.25V14.75C3.49991 14.5511 3.57893 14.3603 3.71958 14.2197C3.86023 14.079 4.051 14 4.24991 14ZM8.99991 11.75C8.99991 11.5511 8.92089 11.3603 8.78024 11.2197C8.63959 11.079 8.44882 11 8.24991 11C8.051 11 7.86023 11.079 7.71958 11.2197C7.57893 11.3603 7.49991 11.5511 7.49991 11.75V17.25C7.49991 17.4489 7.57893 17.6397 7.71958 17.7803C7.86023 17.921 8.051 18 8.24991 18C8.44882 18 8.63959 17.921 8.78024 17.7803C8.92089 17.6397 8.99991 17.4489 8.99991 17.25V11.75ZM12.2499 13C12.4488 13 12.6396 13.079 12.7802 13.2197C12.9209 13.3603 12.9999 13.5511 12.9999 13.75V17.25C12.9999 17.4489 12.9209 17.6397 12.7802 17.7803C12.6396 17.921 12.4488 18 12.2499 18C12.051 18 11.8602 17.921 11.7196 17.7803C11.5789 17.6397 11.4999 17.4489 11.4999 17.25V13.75C11.4999 13.5511 11.5789 13.3603 11.7196 13.2197C11.8602 13.079 12.051 13 12.2499 13ZM16.9999 9.75C16.9999 9.55109 16.9209 9.36032 16.7802 9.21967C16.6396 9.07902 16.4488 9 16.2499 9C16.051 9 15.8602 9.07902 15.7196 9.21967C15.5789 9.36032 15.4999 9.55109 15.4999 9.75V17.25C15.4999 17.4489 15.5789 17.6397 15.7196 17.7803C15.8602 17.921 16.051 18 16.2499 18C16.4488 18 16.6396 17.921 16.7802 17.7803C16.9209 17.6397 16.9999 17.4489 16.9999 17.25V9.75Z" fill="white"/>
</svg>
