<svg width="80" height="48" viewBox="0 0 80 48" fill="none" xmlns="http://www.w3.org/2000/svg">
<g filter="url(#filter0_i_174_491)">
<g clip-path="url(#clip0_174_491)">
<rect width="80" height="48" rx="24" fill="#F2FBFF"/>
<g clip-path="url(#clip1_174_491)">
<g clip-path="url(#clip2_174_491)">
<g opacity="0.3">
<path d="M36.7084 31.906H26.3054V7.66599C26.3054 2.00999 23.2417 0.865324 19.5047 5.10732L16.8114 8.171L-5.98092 34.0943C-9.11192 37.6293 -7.79892 40.5247 -3.08558 40.5247H7.31741V64.7647C7.31741 70.4207 10.381 71.5653 14.1181 67.3233L16.8114 64.2596L39.6037 38.3363C42.7348 34.8013 41.4217 31.906 36.7084 31.906Z" fill="white"/>
</g>
<g opacity="0.4">
<path d="M59.9052 24.7065H49.5022V0.466466C49.5022 -5.18953 46.4385 -6.3342 42.7015 -2.0922L40.0082 0.971462L17.2159 26.8948C14.0849 30.4298 15.3978 33.3252 20.1111 33.3252H30.5142V57.5652C30.5142 63.2212 33.5778 64.3658 37.3148 60.1238L40.0082 57.0601L62.8005 31.1368C65.9316 27.6018 64.6185 24.7065 59.9052 24.7065Z" fill="white"/>
</g>
</g>
</g>
<g filter="url(#filter1_i_174_491)">
<g clip-path="url(#clip3_174_491)">
<rect x="36" y="4" width="40" height="40" rx="20" fill="#00AEFF"/>
<path d="M62.8992 22.1939H59.2942V13.7939C59.2942 11.8339 58.2325 11.4372 56.9375 12.9072L56.0042 13.9689L48.1058 22.9522C47.0208 24.1772 47.4758 25.1806 49.1092 25.1806H52.7142V33.5806C52.7142 35.5406 53.7758 35.9372 55.0708 34.4672L56.0042 33.4056L63.9025 24.4222C64.9875 23.1972 64.5325 22.1939 62.8992 22.1939Z" fill="white"/>
</g>
</g>
</g>
</g>
<defs>
<filter id="filter0_i_174_491" x="0" y="0" width="83" height="48" filterUnits="userSpaceOnUse" color-interpolation-filters="sRGB">
<feFlood flood-opacity="0" result="BackgroundImageFix"/>
<feBlend mode="normal" in="SourceGraphic" in2="BackgroundImageFix" result="shape"/>
<feColorMatrix in="SourceAlpha" type="matrix" values="0 0 0 0 0 0 0 0 0 0 0 0 0 0 0 0 0 0 127 0" result="hardAlpha"/>
<feOffset dx="3"/>
<feGaussianBlur stdDeviation="3"/>
<feComposite in2="hardAlpha" operator="arithmetic" k2="-1" k3="1"/>
<feColorMatrix type="matrix" values="0 0 0 0 0.368627 0 0 0 0 0.0980392 0 0 0 0 0.701961 0 0 0 0.25 0"/>
<feBlend mode="normal" in2="shape" result="effect1_innerShadow_174_491"/>
</filter>
<filter id="filter1_i_174_491" x="33" y="4" width="43" height="40" filterUnits="userSpaceOnUse" color-interpolation-filters="sRGB">
<feFlood flood-opacity="0" result="BackgroundImageFix"/>
<feBlend mode="normal" in="SourceGraphic" in2="BackgroundImageFix" result="shape"/>
<feColorMatrix in="SourceAlpha" type="matrix" values="0 0 0 0 0 0 0 0 0 0 0 0 0 0 0 0 0 0 127 0" result="hardAlpha"/>
<feMorphology radius="1" operator="erode" in="SourceAlpha" result="effect1_innerShadow_174_491"/>
<feOffset dx="-3"/>
<feGaussianBlur stdDeviation="2.5"/>
<feComposite in2="hardAlpha" operator="arithmetic" k2="-1" k3="1"/>
<feColorMatrix type="matrix" values="0 0 0 0 1 0 0 0 0 1 0 0 0 0 1 0 0 0 0.3 0"/>
<feBlend mode="normal" in2="shape" result="effect1_innerShadow_174_491"/>
</filter>
<clipPath id="clip0_174_491">
<rect width="80" height="48" rx="24" fill="white"/>
</clipPath>
<clipPath id="clip1_174_491">
<rect width="80" height="48" fill="white"/>
</clipPath>
<clipPath id="clip2_174_491">
<rect width="80" height="48.2051" fill="white" transform="translate(0 -0.102539)"/>
</clipPath>
<clipPath id="clip3_174_491">
<rect x="36" y="4" width="40" height="40" rx="20" fill="white"/>
</clipPath>
</defs>
</svg>
