<svg width="21" height="21" viewBox="0 0 21 21" fill="none" xmlns="http://www.w3.org/2000/svg">
<path d="M17 6.33333C17.4833 6.33333 17.875 6.5 18.1833 6.825C18.5 7.16667 18.6667 7.54167 18.6667 8V17.1667C18.6667 17.625 18.5 18 18.1833 18.3417C17.875 18.6667 17.4833 18.8333 17 18.8333H3.66667C3.18333 18.8333 2.79167 18.6667 2.48333 18.3417C2.16667 18 2 17.625 2 17.1667V8C2 7.54167 2.16667 7.16667 2.48333 6.825C2.79167 6.5 3.18333 6.33333 3.66667 6.33333H7V4.66667C7 4.18333 7.16667 3.79167 7.48333 3.48333C7.79167 3.16667 8.18333 3 8.66667 3H12C12.4833 3 12.875 3.16667 13.1833 3.48333C13.5 3.79167 13.6667 4.18333 13.6667 4.66667V6.33333H17ZM3.66667 8V17.1667H17V8H3.66667ZM12 6.33333V4.66667H8.66667V6.33333H12Z" fill="white"/>
</svg>
