<svg width="21" height="21" viewBox="0 0 21 21" fill="none" xmlns="http://www.w3.org/2000/svg">
<g clip-path="url(#clip0_2220_931)">
<path d="M13.625 15.125C14.3154 15.125 14.875 14.5654 14.875 13.875C14.875 13.1846 14.3154 12.625 13.625 12.625C12.9346 12.625 12.375 13.1846 12.375 13.875C12.375 14.5654 12.9346 15.125 13.625 15.125Z" fill="white"/>
<path d="M4.875 6.375C5.56536 6.375 6.125 5.81536 6.125 5.125C6.125 4.43464 5.56536 3.875 4.875 3.875C4.18464 3.875 3.625 4.43464 3.625 5.125C3.625 5.81536 4.18464 6.375 4.875 6.375Z" fill="white"/>
<path d="M17.375 20.125C16.8805 20.125 16.3972 19.9784 15.9861 19.7037C15.575 19.429 15.2545 19.0385 15.0653 18.5817C14.8761 18.1249 14.8266 17.6222 14.923 17.1373C15.0195 16.6523 15.2576 16.2069 15.6072 15.8572C15.9569 15.5076 16.4023 15.2695 16.8873 15.173C17.3722 15.0766 17.8749 15.1261 18.3317 15.3153C18.7885 15.5045 19.179 15.825 19.4537 16.2361C19.7284 16.6472 19.875 17.1305 19.875 17.625C19.873 18.2874 19.609 18.9222 19.1406 19.3906C18.6722 19.859 18.0374 20.123 17.375 20.125ZM17.375 16.375C17.1278 16.375 16.8861 16.4483 16.6805 16.5857C16.475 16.723 16.3148 16.9182 16.2202 17.1466C16.1255 17.3751 16.1008 17.6264 16.149 17.8689C16.1973 18.1113 16.3163 18.3341 16.4911 18.5089C16.6659 18.6837 16.8887 18.8028 17.1311 18.851C17.3736 18.8992 17.6249 18.8745 17.8534 18.7799C18.0818 18.6852 18.277 18.525 18.4143 18.3195C18.5517 18.1139 18.625 17.8722 18.625 17.625C18.624 17.2938 18.492 16.9764 18.2578 16.7422C18.0236 16.508 17.7062 16.376 17.375 16.375Z" fill="white"/>
<path d="M19.25 10.7501C19.2432 8.43153 18.3192 6.20986 16.6797 4.57038C15.0402 2.9309 12.8186 2.00686 10.5 2.0001C9.00704 1.9788 7.5369 2.36795 6.25 3.1251L6.9375 4.1876C7.42605 3.95278 7.92676 3.74415 8.4375 3.5626C7.40431 5.60129 6.82841 7.84089 6.75 10.1251H3C3.07003 9.09312 3.36893 8.08969 3.875 7.1876L2.9375 6.3751C2.15982 7.70195 1.74992 9.21214 1.75 10.7501C1.74984 11.8992 1.97605 13.0371 2.41572 14.0988C2.85539 15.1604 3.4999 16.1251 4.31245 16.9376C5.12499 17.7502 6.08965 18.3947 7.15133 18.8344C8.213 19.274 9.35089 19.5003 10.5 19.5001C11.6142 19.5106 12.7192 19.2981 13.75 18.8751L13.375 17.6876C12.3503 18.1258 11.2374 18.3184 10.125 18.2501C8.79216 16.2001 8.05636 13.8196 8 11.3751H19.1875C19.2392 11.171 19.2602 10.9604 19.25 10.7501ZM8.5 18.0001C7.25716 17.6276 6.12142 16.9633 5.1875 16.0626C3.94741 14.7937 3.17597 13.1406 3 11.3751H6.75C6.836 13.6857 7.4337 15.9484 8.5 18.0001ZM8 10.1251C8.04971 7.68854 8.76278 5.31165 10.0625 3.2501H10.9375C12.2372 5.31165 12.9503 7.68854 13 10.1251H8ZM14.25 10.1251C14.2024 7.80893 13.6025 5.5376 12.5 3.5001C13.9705 3.92396 15.2778 4.78429 16.2487 5.96727C17.2196 7.15025 17.8085 8.60013 17.9375 10.1251H14.25Z" fill="white"/>
</g>
<defs>
<clipPath id="clip0_2220_931">
<rect width="20" height="20" fill="white" transform="translate(0.5 0.75)"/>
</clipPath>
</defs>
</svg>
